<?xml version="1.0" encoding="utf-8"?>
<!-- Generator: Adobe Illustrator 26.0.3, SVG Export Plug-In . SVG Version: 6.00 Build 0)  -->
<svg version="1.1" id="Layer_1" xmlns="http://www.w3.org/2000/svg" xmlns:xlink="http://www.w3.org/1999/xlink" x="0px" y="0px"
	 viewBox="0 0 144 144" style="enable-background:new 0 0 144 144;" xml:space="preserve">
<style type="text/css">
	.st0{fill:#F47521;}
</style>
<g>
	<path class="st0" d="M91.53,32.51l-0.21-3l-0.55-7.84c2.44-0.54,4.28-3.04,4.25-7.74C94.98,8.61,92.57,2.5,89.64,2.52
		c-2.93,0.02-5.26,6.17-5.22,11.49c0.03,4.7,1.9,7.17,4.36,7.67l-0.45,8.07l-0.14,2.51c1.47,2.04,2.69,4.32,3.68,6.79L91.53,32.51z"
		/>
	<path class="st0" d="M79.53,22.94l3.25-4.91l-1.3-15.32h-0.7c-0.01,6.62,0.25,11.96-0.01,11.96c-0.26,0-0.94-5.34-0.94-11.96h-0.65
		c-0.01,6.62-0.23,11.96-0.49,11.95c-0.26,0-0.47-5.33-0.46-11.95h-0.74c-0.02,6.62-0.63,11.95-0.89,11.95
		c-0.26,0-0.07-5.33-0.06-11.95h-0.81l-1.39,15.31l3.24,4.92l-0.03,0.82c0.73,0.31,1.44,0.65,2.12,1.01L79.53,22.94z"/>
	<path class="st0" d="M93.35,43.46c-0.42-1.53-0.92-3-1.48-4.41l0.41,7.94c0,0,0.23,3.06-0.08,5.82
		C93.81,50.11,94.32,47,93.35,43.46z"/>
	<path class="st0" d="M80.29,32.21l0.01,0.18c2.87,2.57,5.25,5.74,7.02,9.63c0.16,0.35,0.3,0.72,0.42,1.09l0.44-10.7l0.01-0.14
		c-2.23-3.09-5.04-5.63-8.5-7.49l0.36,4.44L80.29,32.21z"/>
	<g>
		<path class="st0" d="M101.52,61.43H87.8c0.43,1.2,0.86,2.4,1.27,3.6c1.09,3.14,0.67,4.09-2.29,5.49
			c-9.13,4.31-17.53,9.65-23.38,18.1c-2,2.88-3.04,6.41-4.71,9.54c-0.55,1.04-1.3,2.3-2.16,3v39.48h45c8.59,0,12.89-3.26,12.89-9.79
			V71.47C114.42,64.78,110.12,61.43,101.52,61.43z M88.63,120.68c0,0.14-0.11,0.25-0.25,0.25h-6.07V81.27h6.07
			c0.14,0,0.25,0.11,0.25,0.25V120.68z"/>
		<path class="st0" d="M86.68,58.3c0.82-0.55,1.57-1.12,2.26-1.72c-1.04-1.21-1.34-4.16-1.4-6.46c-0.39,0.47-0.89,0.88-1.57,1.22
			c-1.91,0.94-3.37,0.5-4.61-0.79c-0.04,1.17-0.16,2.67-0.5,3.94c0.62,1.88,1.56,3.8,2.71,5.42c0.36,0.52,0.76,1.01,1.12,1.53h3.11
			C87.43,60.39,87.06,59.34,86.68,58.3z"/>
		<path class="st0" d="M51.68,93.49c-0.28-0.17-0.55-0.37-0.83-0.56c-3.41-2.35-3.1-2.29-2.3-6.33c0.81-4.11,0.91-8.36,1.35-12.55
			c0.12-1.14,0.17-2.33,0.54-3.39c1.32-3.78,3.25-6.66,6.1-8.93v-0.3h0.39c2.53-1.91,5.74-3.37,9.85-4.57
			c-2.92-0.85-6.63-0.23-10.34,2.38c-3.01,2.12-5.66,4.77-8.55,7.24c-0.36-0.58-0.81-1.32-1.61-2.64c0,2.01,0.1,3.38-0.02,4.72
			c-0.47,5.28-0.66,10.62-1.62,15.81c-0.75,4.06-3.1,7.53-6.68,9.91c-5.46,3.62-11.11,1.5-11.85-4.98
			c-0.48-4.17,0.06-8.67,1.11-12.77c2.53-9.89,7.74-18.51,13.9-26.57c0.3-0.39,0.59-0.78,0.67-1.49c-1.38,0.94-2.77,1.89-4.74,3.23
			c0.3-2.2,0.41-3.87,0.76-5.5c2.38-11.08,12.61-20.29,23.9-21.46c1.63-0.17,3.4-0.14,4.94,0.33c3.95,1.19,7.56,2.83,10.72,5.02
			l0.03-1.02l0.17-5.3c-1.42-0.6-2.93-1.11-4.55-1.49c-13.8-3.26-25.48,1.11-34.78,11.56c-4.66,5.23-6.4,11.62-4.96,18.59
			c0.37,1.81-0.11,2.85-1.32,4.09c-6.44,6.58-10.76,14.34-12.39,23.45c-1.22,6.83,0.79,12.69,6.05,17.27
			c5.18,4.51,11.9,4.36,16.95-0.31c1.27-1.17,2.32-2.59,3.92-4.41c1.89,2.43,3.54,4.81,5.48,6.91c0.98,1.06,2.72,2.47,3.71,2.2
			c0.3-0.08,0.58-0.24,0.86-0.46v-7.31C55.34,95.03,53.91,94.86,51.68,93.49z"/>
		<path class="st0" d="M58.69,98.17c1.68-3.13,2.72-6.66,4.71-9.54c5.85-8.45,14.25-13.79,23.38-18.1c2.96-1.4,3.39-2.34,2.29-5.49
			c-0.42-1.2-0.84-2.4-1.27-3.6h-3.11c0.07,0.1,0.13,0.19,0.19,0.29c1.96,3.11,1.32,5.13-2.08,6.4
			c-11.6,4.34-19.79,12.26-24.87,23.5c-0.45,1-0.91,1.73-1.41,2.23v7.31C57.4,100.47,58.14,99.2,58.69,98.17z"/>
		<path class="st0" d="M56.53,61.74c0.13-0.1,0.26-0.2,0.39-0.3h-0.39V61.74z"/>
	</g>
	<path class="st0" d="M80.8,49.88c-0.2-0.26-0.39-0.53-0.68-0.93c-0.22,1.53,0.08,3.51,0.75,5.52c0.34-1.27,0.46-2.77,0.5-3.94
		C81.17,50.34,80.98,50.12,80.8,49.88z"/>
	<path class="st0" d="M92.27,46.99l-0.41-7.94c-0.99-2.47-2.21-4.75-3.68-6.79l-0.01,0.14l-0.44,10.7c0.33,1.04,0.53,2.16,0.68,3.24
		c0.2,1.46-0.03,2.75-0.87,3.76c0.07,2.3,0.36,5.25,1.4,6.46c1.33-1.15,2.43-2.4,3.24-3.76C92.5,50.05,92.27,46.99,92.27,46.99z"/>
	<path class="st0" d="M77.36,30.08c1.03,0.71,2.01,1.48,2.94,2.31l-0.01-0.18l-0.24-3l-0.36-4.44c-0.68-0.36-1.39-0.7-2.12-1.01
		l-0.17,5.3L77.36,30.08z"/>
</g>
</svg>
